HIERARCHY
ROOT Hips
{
	OFFSET 0.000000 0.000000 0.000000
	CHANNELS 6 Xposition Yposition Zposition Zrotation Yrotation Xrotation 
	JOINT LHipJoint
	{
		OFFSET 0.000000 0.000000 0.000000
		CHANNELS 3 Zrotation Yrotation Xrotation
		JOINT LeftUpLeg
		{
			OFFSET 1.363060 -1.794630 0.839290
			CHANNELS 3 Zrotation Yrotation Xrotation
			JOINT LeftLeg
			{
				OFFSET 2.448110 -6.726130 0.000000
				CHANNELS 3 Zrotation Yrotation Xrotation
				JOINT LeftFoot
				{
					OFFSET 2.562200 -7.039590 0.000000
					CHANNELS 3 Zrotation Yrotation Xrotation
					JOINT LeftToeBase
					{
						OFFSET 0.157640 -0.433110 2.322550
						CHANNELS 3 Zrotation Yrotation Xrotation
						End Site
						{
							OFFSET 0.000000 0.000000 0.000000
						}
					}
				}
			}
		}
	}
	JOINT RHipJoint
	{
		OFFSET 0.000000 0.000000 0.000000
		CHANNELS 3 Zrotation Yrotation Xrotation
		JOINT RightUpLeg
		{
			OFFSET -1.305520 -1.794630 0.839290
			CHANNELS 3 Zrotation Yrotation Xrotation
			JOINT RightLeg
			{
				OFFSET -2.542530 -6.985550 0.000000
				CHANNELS 3 Zrotation Yrotation Xrotation
				JOINT RightFoot
				{
					OFFSET -2.568260 -7.056230 0.000000
					CHANNELS 3 Zrotation Yrotation Xrotation
					JOINT RightToeBase
					{
						OFFSET -0.164730 -0.452590 2.363150
						CHANNELS 3 Zrotation Yrotation Xrotation
						End Site
						{
							OFFSET 0.000000 0.000000 0.000000
						}
					}
				}
			}
		}
	}
}
MOTION
Frames: 19
Frame Time: 0.008333
-11.677052 16.360405 -2.267622 168.562646 82.055297 167.506268 -11.025152 6.111896 -0.557948 5.779898 19.831750 8.801876 -0.664351 2.439415 34.063790 0.406173 -2.866224 9.379885 -0.892600 -0.000000 -81.989700 8.310041 -1.430538 -0.825169 25.285480 -17.493081 -32.504396 2.700554 -0.826704 24.491351 -4.324294 -15.842106 -18.147030 -177.728600 -0.000000 -4.572200
-11.468102 16.348067 -2.243692 168.562745 81.737079 167.250940 -11.070348 6.104563 -0.557501 6.478163 19.473753 7.998712 -0.444601 2.600550 36.709480 0.502108 -3.808093 12.032923 -1.380499 0.000000 -80.865999 8.388745 -1.392614 -0.886144 24.832533 -17.344641 -31.736218 2.596009 -0.887128 25.330547 -4.448234 -16.289211 -18.966517 -177.384900 0.000000 -10.668700
-11.264722 16.336098 -2.221308 168.831329 81.479741 167.269291 -11.120198 6.063736 -0.551711 7.085808 19.011821 7.040898 -0.233891 2.746226 39.488210 0.627971 -4.384591 14.367011 -1.810700 0.000001 -78.353700 8.458082 -1.372710 -0.987794 24.493922 -17.363531 -31.139147 2.509051 -0.981032 26.410629 -4.532854 -16.591308 -19.759214 -177.053300 -0.000000 -15.153099
-11.067254 16.324469 -2.200372 169.298878 81.298053 167.500036 -11.173633 5.994010 -0.544231 7.595048 18.468651 5.935015 -0.037241 2.882337 42.369743 0.767108 -4.547730 16.273820 -2.099500 -0.000000 -74.698300 8.516747 -1.370818 -1.121253 24.262922 -17.521750 -30.681376 2.440677 -1.098655 27.668196 -4.581890 -16.751115 -20.542921 -176.735000 0.000000 -18.291100
-10.875757 16.313221 -2.180514 169.895458 81.202296 167.882332 -11.230367 5.901018 -0.537923 8.002157 17.868286 4.687941 0.145306 3.015187 45.318663 0.906856 -4.282515 17.681737 -2.188501 0.000000 -70.268900 8.564174 -1.385440 -1.274813 24.125404 -17.776210 -30.320733 2.389276 -1.229019 29.023069 -4.602621 -16.789893 -21.322263 -176.432600 0.000000 -20.321100
-10.689989 16.302443 -2.161232 170.563417 81.198105 168.367883 -11.290671 5.790033 -0.533902 8.307565 17.230961 3.307507 0.316914 3.149382 48.294426 1.039556 -3.614463 18.561883 -2.059200 0.000000 -65.466800 8.599463 -1.414049 -1.435204 24.066629 -18.072410 -30.010116 2.352172 -1.360837 30.388328 -4.605907 -16.742939 -22.103435 -176.144700 -0.000000 -21.568400
-10.509431 16.292336 -2.141961 171.252078 81.286499 168.914382 -11.354418 5.665363 -0.531026 8.512220 16.568671 1.806430 0.481589 3.286508 51.247275 1.162409 -2.601828 18.933936 -1.732900 -0.000001 -60.802801 8.622580 -1.453604 -1.590527 24.070660 -18.358369 -29.703822 2.325961 -1.484541 31.682997 -4.601606 -16.647869 -22.876571 -175.872300 0.000000 -22.204600
-10.333425 16.283180 -2.122101 171.914714 81.464206 169.481130 -11.420690 5.530248 -0.526550 8.618039 15.886035 0.199554 0.642216 3.425750 54.129319 1.274519 -1.330370 18.838895 -1.260600 0.000000 -56.553000 8.633756 -1.500496 -1.730341 24.122451 -18.586796 -29.362735 2.307603 -1.592281 32.838655 -4.599418 -16.541719 -23.636135 -175.612800 -0.000000 -22.431700
-10.161164 16.275307 -2.101020 172.501754 81.723193 170.022527 -11.487441 5.386956 -0.516183 8.625795 15.178661 -1.492500 0.799846 3.563766 56.887545 1.376922 0.106758 18.350239 -0.706300 -0.000001 -53.083799 8.634168 -1.550873 -1.847585 24.207144 -18.723639 -28.957354 2.294654 -1.678721 33.805397 -4.606366 -16.453135 -24.374619 -175.362899 -0.000000 -22.391800
-9.991867 16.269097 -2.078179 172.965935 82.055193 170.491740 -11.552203 5.236869 -0.496259 8.540330 14.442594 -3.248460 0.953431 3.696491 59.476792 1.469057 1.608713 17.532580 -0.136100 -0.000000 -50.400600 8.624984 -1.600966 -1.936493 24.310924 -18.739809 -28.465441 2.285249 -1.740265 34.548884 -4.628781 -16.407213 -25.092418 -175.116199 -0.000000 -22.277100
-9.824800 16.264933 -2.053271 173.272773 82.445913 170.853101 -11.611957 5.082240 -0.462104 8.369101 13.666801 -5.051088 1.100519 3.820732 61.865941 1.547833 3.076635 16.424641 0.390800 -0.000000 -48.121400 8.608189 -1.647561 -1.995540 24.424336 -18.629374 -27.883312 2.278312 -1.776372 35.062445 -4.668562 -16.412889 -25.787881 -174.868800 0.000000 -22.201300
-9.659358 16.263223 -2.025980 173.359600 82.889274 171.040090 -11.663261 4.923082 -0.410838 8.117946 12.843754 -6.869919 1.237256 3.930715 64.006290 1.613725 4.438698 15.128668 0.834500 0.000000 -46.541400 8.586415 -1.687465 -2.023940 24.534742 -18.381125 -27.204335 2.272584 -1.787338 35.343045 -4.726859 -16.477763 -26.457610 -174.618100 0.000000 -22.285800
-9.495122 16.264326 -1.996265 173.178358 83.376870 170.999899 -11.702760 4.760731 -0.339923 7.796679 11.965068 -8.683795 1.359417 4.023313 65.873267 1.663622 5.629902 13.695329 1.169099 -0.000000 -45.376800 8.562823 -1.718294 -2.023512 24.634324 -18.000723 -26.437438 2.267158 -1.775636 35.409288 -4.801218 -16.596295 -27.094744 -174.365400 0.000000 -22.575300
-9.331873 16.268498 -1.964242 172.669650 83.904749 170.667700 -11.727063 4.596026 -0.248031 7.415856 11.024419 -10.470481 1.462825 4.095702 67.445300 1.695918 6.610159 12.189220 1.387600 -0.000000 -44.560500 8.541148 -1.738256 -1.997574 24.716867 -17.498311 -25.594674 2.261279 -1.744742 35.288070 -4.887168 -16.755869 -27.689617 -174.115500 0.000000 -23.078500
-9.169580 16.275943 -1.930163 171.764913 84.472404 169.969007 -11.732893 4.429869 -0.135908 6.988576 10.021669 -12.212487 1.543950 4.146873 68.714831 1.708471 7.356893 10.645565 1.494900 -0.000000 -43.804000 8.525667 -1.746506 -1.950099 24.778460 -16.888478 -24.691521 2.254219 -1.698958 35.012268 -4.977992 -16.937754 -28.223870 -173.879199 0.000000 -23.698500
-9.008402 16.286679 -1.894378 170.372466 85.082843 168.807133 -11.716621 4.262637 -0.004797 6.527476 8.957747 -13.894327 1.600374 4.175974 69.677447 1.702511 7.876917 9.119667 1.510399 -0.000000 -43.154400 8.521047 -1.742538 -1.885941 24.817654 -16.188898 -23.744678 2.246039 -1.642658 34.617898 -5.066985 -17.120043 -28.688659 -173.665400 0.000000 -24.403600
-8.848586 16.300590 -1.857344 168.353685 85.739717 167.037770 -11.673751 4.094464 0.141614 6.047759 7.841230 -15.506715 1.631014 4.183702 70.343885 1.679053 8.190415 7.625332 1.455000 -0.000000 -42.357700 8.533208 -1.727107 -1.809736 24.835003 -15.420040 -22.769482 2.237104 -1.580433 34.138795 -5.146130 -17.278713 -29.066413 -173.487800 -0.000000 -25.037100
-8.690428 16.317402 -1.819476 165.483516 86.445925 164.431489 -11.598050 3.924169 0.298789 5.564688 6.682512 -17.043609 1.636284 4.170010 70.727881 1.641916 8.337863 6.182040 1.353300 0.000000 -41.374600 8.569375 -1.701911 -1.725841 24.833726 -14.602474 -21.778836 2.228976 -1.516492 33.603616 -5.209144 -17.392974 -29.352169 -173.355500 0.000000 -25.528300
-8.534286 16.336696 -1.781198 161.365447 87.198058 160.587182 -11.480479 3.747890 0.460580 5.095002 5.494381 -18.502484 1.618360 4.133211 70.849838 1.596004 8.368969 4.795965 1.226700 0.000000 -40.163800 8.639349 -1.671175 -1.637568 24.819613 -13.756598 -20.782236 2.224554 -1.455353 33.032598 -5.251256 -17.447817 -29.546036 -173.273900 0.000001 -25.818000
